<svg width="256" height="256" viewBox="0 0 256 256" fill="none" xmlns="http://www.w3.org/2000/svg">
<path d="M220.761 186.96L142.688 21.16C141.717 19.1199 140.214 17.3801 138.336 16.1245C136.458 14.869 134.275 14.1445 132.019 14.0277C129.759 13.8763 127.501 14.3474 125.489 15.39C123.478 16.4325 121.791 18.0066 120.612 19.9409L35.9337 157.092C34.6461 159.163 33.9756 161.558 34.0007 163.996C34.0258 166.435 34.7455 168.815 36.0754 170.859L77.4751 234.971C79.0413 237.378 81.3437 239.214 84.0386 240.205C86.7336 241.196 89.6768 241.289 92.4292 240.471L212.572 204.933C214.381 204.404 216.056 203.493 217.482 202.261C218.909 201.03 220.054 199.506 220.841 197.793C221.617 196.09 222.013 194.237 222 192.365C221.987 190.493 221.566 188.647 220.767 186.954L220.761 186.96ZM203.282 194.071L101.333 224.217C98.2234 225.142 95.2382 222.446 95.8851 219.308L132.309 44.9053C132.989 41.6424 137.496 41.1254 138.92 44.1452L206.346 187.328C206.644 187.966 206.8 188.661 206.804 189.366C206.807 190.07 206.658 190.766 206.366 191.407C206.074 192.048 205.647 192.618 205.114 193.078C204.58 193.537 203.953 193.876 203.276 194.07L203.282 194.071Z" fill="black"/>
</svg>
