<svg width="256" height="256" viewBox="0 0 256 256" fill="none" xmlns="http://www.w3.org/2000/svg">
<path d="M149.333 58.6667C149.333 65.7391 152.143 72.5219 157.144 77.5228C162.145 82.5238 168.928 85.3333 176 85.3333C183.072 85.3333 189.855 82.5238 194.856 77.5228C199.857 72.5219 202.667 65.7391 202.667 58.6667C202.667 51.5942 199.857 44.8115 194.856 39.8105C189.855 34.8095 183.072 32 176 32C168.928 32 162.145 34.8095 157.144 39.8105C152.143 44.8115 149.333 51.5942 149.333 58.6667ZM64 32H117.333V85.3333H64V32ZM117.333 117.333V224C103.401 223.982 90.0286 218.513 80.0768 208.762C70.125 199.011 64.3839 185.754 64.0814 171.824C63.779 157.895 68.9393 144.401 78.4586 134.227C87.9778 124.054 101.1 118.009 115.019 117.387L117.333 117.333Z" stroke="black" stroke-width="21.3333" stroke-linecap="round" stroke-linejoin="round"/>
</svg>
