<svg width="256" height="256" viewBox="0 0 256 256" fill="none" xmlns="http://www.w3.org/2000/svg">
<g clip-path="url(#clip0_2_6)">
<path d="M128.008 51.204C93.874 51.204 72.548 68.264 64.008 102.398C76.804 85.336 91.742 78.938 108.804 83.204C118.546 85.632 125.508 92.696 133.218 100.524C145.766 113.258 160.29 128 192.008 128C226.14 128 247.468 110.938 256.008 76.796C243.21 93.868 228.274 100.266 211.21 96C201.47 93.57 194.516 86.508 186.796 78.68C174.256 65.946 159.736 51.204 128.008 51.204ZM64.008 128C29.876 128 8.548 145.062 0.00799561 179.204C12.804 162.132 27.74 155.734 44.804 160C54.546 162.43 61.508 169.492 69.218 177.32C81.766 190.054 96.29 204.796 128.008 204.796C162.14 204.796 183.468 187.736 192.008 153.602C179.21 170.664 164.274 177.062 147.21 172.796C137.47 170.368 130.516 163.304 122.796 155.476C110.256 142.742 95.736 128 64.008 128Z" fill="#38BDF8"/>
</g>
<defs>
<clipPath id="clip0_2_6">
<rect width="256" height="256" fill="white"/>
</clipPath>
</defs>
</svg>
